<svg width="148" height="19" fill="none" xmlns="http://www.w3.org/2000/svg"><path d="M17.86 16.738l-4.255-4.254c-.105-.07-.21-.14-.316-.14h-.457a7.362 7.362 0 001.793-4.781C14.625 3.554 11.32.25 7.312.25 3.27.25 0 3.555 0 7.563a7.307 7.307 0 007.313 7.312c1.828 0 3.48-.668 4.78-1.758v.457c0 .106.036.211.106.317l4.254 4.254c.176.175.457.175.598 0l.808-.81c.176-.14.176-.42 0-.597zm-10.547-3.55a5.597 5.597 0 01-5.625-5.626 5.619 5.619 0 015.625-5.625c3.093 0 5.625 2.532 5.625 5.625a5.619 5.619 0 01-5.626 5.625zM83.32 2.534c-2.039-1.723-5.168-1.476-7.101.527-1.969-2.003-5.098-2.25-7.137-.527-2.637 2.215-2.25 5.836-.351 7.77l6.152 6.293a1.86 1.86 0 001.336.562c.492 0 .949-.21 1.3-.562l6.188-6.293c1.863-1.934 2.25-5.555-.387-7.77zm-.843 6.574l-6.153 6.293c-.07.07-.14.07-.246 0L69.926 9.11c-1.301-1.3-1.547-3.761.246-5.273 1.371-1.16 3.48-.984 4.816.352l1.23 1.265 1.231-1.266c1.301-1.335 3.41-1.511 4.782-.386 1.792 1.547 1.546 4.008.246 5.308zm64.3-6.609h-14.308l-.317-1.547c-.07-.387-.422-.703-.808-.703h-3.516a.428.428 0 00-.422.422v.844c0 .246.176.421.422.421h2.813l2.425 12.516c-.386.422-.597.95-.597 1.547a2.22 2.22 0 002.25 2.25c1.23 0 2.25-.984 2.25-2.25 0-.316-.141-.809-.317-1.125h5.098c-.176.316-.281.809-.281 1.125a2.22 2.22 0 002.25 2.25c1.23 0 2.25-.984 2.25-2.25 0-.633-.281-1.195-.703-1.617l.035-.14c.105-.528-.281-1.056-.844-1.056h-9.914l-.316-1.687h10.968c.422 0 .739-.246.844-.633l1.582-7.312c.106-.528-.281-1.055-.844-1.055zm-12.058 14.344c-.492 0-.844-.352-.844-.844 0-.457.352-.844.844-.844.457 0 .843.387.843.844a.832.832 0 01-.843.844zm9 0c-.492 0-.844-.352-.844-.844 0-.457.352-.844.844-.844.457 0 .843.387.843.844a.832.832 0 01-.843.844zm.808-7.032h-10.652l-1.09-5.624h12.973l-1.231 5.625z" fill="#22262A"/></svg>